<svg xmlns="http://www.w3.org/2000/svg" width="256" height="256"><path fill-opacity=".016" d="M0 128.004v128.004l128.25-.254 128.25-.254.254-127.75L257.008 0H0v128.004m.485.496c0 70.4.119 99.053.265 63.672.146-35.38.146-92.98 0-128C.604 29.153.485 58.1.485 128.5" fill="#1976D2" fill-rule="evenodd"/><path fill-opacity=".211" d="M168 54.473c0 .361 1.35 1.792 3 3.18 3.648 3.07 3.688 4.02 1 23.347-1.1 7.908-2 14.743-2 15.189 0 .446-3.488.822-7.75.835-13.459.043-19.858 2.596-22.496 8.976-.568 1.375-1.581 5.65-2.251 9.5l-1.219 7 .108-9.716c.104-9.349.003-9.821-2.665-12.5l-2.773-2.784H81.227c-48.312 0-49.827.058-53.227 2.048-1.925 1.127-4.242 3.61-5.148 5.518-.995 2.092-3.89 19.341-7.294 43.452-3.105 21.99-6.138 41.238-6.74 42.772-.602 1.535-2.944 4.379-5.206 6.321l-4.112 3.53 20.547-.321c17.906-.279 20.907-.556 23.345-2.155 2.784-1.827 2.794-1.825 2.102.355l-.695 2.19 16.35-.355c14.484-.314 16.761-.597 19.937-2.475l3.587-2.12-.453 2.37-.453 2.37h14.25c20.564 0 24.953-1.87 27.49-11.709.679-2.635 3.205-18.741 5.614-35.791 2.408-17.05 4.523-29.987 4.699-28.75.314 2.216.541 2.25 14.888 2.25h14.57l-.583 5.75c-.32 3.162-2.183 16.664-4.139 30.004-1.956 13.34-3.556 26.052-3.556 28.25 0 4.512 2.289 7.481 6.725 8.721 1.526.426 17.625.775 35.775.775 36.429 0 36.96-.081 41.125-6.268 1.267-1.882 2.685-6.338 3.342-10.5.629-3.978 1.379-8.469 1.667-9.982l.525-2.75h-46.376l.518-2.25c.286-1.238 1.758-11.137 3.272-22l2.752-19.75 16.088-.024c19.375-.029 23.051-.742 27.225-5.286 3.213-3.498 4.711-8.297 5.993-19.209l.644-5.481h-45.554l.634-5.25c2.598-21.545 2.964-26.884 2.088-30.422-1.514-6.115-3.852-6.754-26.193-7.161-10.588-.193-19.25-.056-19.25.306" fill="#1976D2" fill-rule="evenodd"/><path fill-opacity=".454" d="m185.139 54.949-11.361.551 2.204 1.989c4.017 3.625 4.127 4.732 2.013 20.211-1.112 8.14-2.232 15.744-2.489 16.898-.425 1.905-1.398 2.16-10.539 2.759-16.284 1.067-19.008 3.128-21.526 16.285-2.509 13.116-3.626 12 12.59 12.583 7.718.277 14.249.722 14.515.987.265.266-1.373 13.039-3.641 28.386-5.166 34.963-5.293 36.327-3.668 39.402 2.443 4.622 4.335 4.88 37.286 5.075 34.571.205 36.913-.151 39.972-6.065 1.658-3.206 4.505-16.224 4.505-20.598V171h-22.5c-18.528 0-22.5-.245-22.5-1.388 0-1.285 4.386-33.176 5.532-40.221l.506-3.109 18.054-.158c19.742-.173 23.444-.96 26.511-5.641 1.466-2.238 5.264-17.969 5.367-22.233.023-.965-5.236-1.25-23.049-1.25h-23.08l.538-2.75c1.532-7.833 2.858-19.609 2.982-26.469.117-6.51-.176-8.035-1.869-9.73-1.798-1.801-11.028-4.362-13.878-3.852-.613.11-6.226.448-12.475.75M40.5 98.078c-3.3.317-6.954 1.089-8.12 1.715-4.334 2.327-5.597 7.71-11.536 49.207-3.189 22.275-5.808 40.857-5.821 41.293-.012.436-2.147 3.064-4.744 5.84l-4.721 5.047 16.471-.34c14.031-.29 17.064-.636 20.471-2.34l4-2 3.701-26.5 4.854-34.75c1.077-7.718 1.306-8.25 3.548-8.25 1.318 0 2.395.563 2.394 1.25-.002.688-2.251 17.225-4.997 36.75s-4.995 35.672-4.997 35.883c-.001.21 5.734.172 12.747-.086 12.774-.469 17.17-1.586 20.091-5.106.658-.792 3.306-16.572 5.886-35.066L94.417 127H99.65l-4.674 32.75c-2.571 18.012-4.924 34.662-5.23 37L89.19 201h9.856c17.346 0 23.283-2.48 25.765-10.764 1.759-5.87 10.177-65.428 10.867-76.886.601-9.97.566-10.197-1.988-12.75-1.812-1.813-3.748-2.637-6.395-2.721-13.544-.431-81.88-.275-86.795.199" fill="#1976D2" fill-rule="evenodd"/><path fill-opacity=".315" d="M203.685 56.007c1.201.484 2.664 1.776 3.25 2.871 1.479 2.764 1.298 13.747-.423 25.622-1.878 12.962-1.914 12.5.988 12.5 1.375 0 2.514-.562 2.532-1.25.017-.687.678-5.975 1.468-11.75 1.7-12.423 1.894-22.395.488-25.022-.556-1.04-2.694-2.358-4.75-2.929-4.485-1.245-6.602-1.271-3.553-.042m-77.094 42.875c3.483 1.559 4.766 6.286 4.046 14.913-1.376 16.485-10.46 75.963-12.08 79.096-.91 1.758-3.095 4.121-4.856 5.249l-3.201 2.051 3.5-.607c5.302-.92 8.308-3.677 10.232-9.386 2.295-6.808 12.033-77.473 11.447-83.06-.547-5.206-2.935-7.892-7.682-8.64-2.694-.425-3.017-.336-1.406.384m123.979 1.368c-.258 1.237-1.129 5.696-1.936 9.908-1.691 8.822-3.786 12.563-8.086 14.436-2.189.953-2.503 1.339-1.114 1.367 1.064.021 3.836-.881 6.16-2.006 4.815-2.331 6.513-5.573 8.38-15.997a989.66 989.66 0 0 1 1.498-8.208c.248-1.273-.31-1.75-2.047-1.75-1.67 0-2.528.676-2.855 2.25m-197.059 29c-.29 1.238-2.314 14.644-4.499 29.793-2.184 15.148-4.492 29.098-5.128 31-1.351 4.039-5.578 8.923-7.821 9.036-1.018.051-1.13.254-.322.58 1.629.659 7.801-1.402 9.182-3.066.595-.717 3.092-15.432 5.549-32.698 2.456-17.267 4.694-32.633 4.972-34.145.604-3.281-1.174-3.74-1.933-.5m37.586 0c-.469 1.238-2.049 11.025-3.509 21.75-5.446 39.982-6.772 44.87-12.895 47.533-2.534 1.102-2.754 1.397-1.065 1.428 3.558.065 9.385-2.882 10.357-5.239.504-1.222 2.759-15.722 5.011-32.222 2.252-16.5 4.335-31.238 4.629-32.75.65-3.35-1.301-3.736-2.528-.5m109.445-1c-.628 1.984-5.552 38-5.547 40.57.004 1.815.48 2.25 2.193 2 2.053-.3 2.36-1.529 4.959-19.82 3.412-24.007 3.411-24 .822-24-1.118 0-2.21.563-2.427 1.25m39.041 48.5c-1.858 13.702-4.65 20.311-9.371 22.185l-2.712 1.077 3-.54c8.582-1.546 10.77-4.449 13.069-17.343 1.802-10.102 1.8-10.129-.955-10.129-2.09 0-2.467.59-3.031 4.75" fill="#1976D2" fill-rule="evenodd"/></svg>